<svg width="330" height="640" viewBox="0 0 330 640" fill="none" xmlns="http://www.w3.org/2000/svg">
<path d="M40 28C40 28 70 28 165 28C260 28 290 28 290 28C290 28 305 32 305 70C305 108 290 118 165 118C70 118 25 118 25 118C25 118 12 130 12 168C12 206 25 218 165 218C260 218 305 218 305 218C305 218 318 228 318 268C318 308 305 318 165 318C70 318 25 318 25 318C25 318 12 330 12 370C12 410 40 428 165 428C250 428 290 430 305 470C318 508 300 548 250 560" stroke="#DEDEDE" stroke-width="6" stroke-linecap="round" stroke-dasharray="16 16"/>
</svg>
